<svg xmlns="http://www.w3.org/2000/svg" viewBox="0 0 80 80">
  <path d="M13.182 47.022h53.636M13.182 32.978h53.636M6.218 40L40 6.367 73.78 40 40 73.633zM.39 40L40 .56 79.613 40 40 79.44z" stroke-width=".5" stroke="#000" fill="none"/>
  <path fill="#000" d="M46.172 62.495q0 .504-.157.763-.154.26-.457.26-.3 0-.457-.258-.15-.26-.16-.746v-.416q0-.495.16-.755t.46-.26q.3 0 .46.25.16.252.17.734zm-.183-.423q0-.407-.11-.614-.11-.207-.33-.207-.21 0-.32.2-.11.2-.12.59v.48q0 .4.11.62.11.22.32.22.21 0 .31-.2.11-.2.11-.6zm-1.88 1.412h-.18v-2.13l-.54.24v-.186l.68-.3h.03zm-1.19-.99q0 .505-.16.764-.16.26-.46.26-.3 0-.46-.258-.16-.26-.16-.746v-.416q0-.495.15-.755t.46-.26q.3 0 .45.25.15.252.16.734zm-.19-.422q0-.407-.11-.614-.11-.207-.33-.207-.21 0-.32.2-.11.2-.12.59v.48q0 .4.11.62.11.22.33.22.21 0 .32-.2.11-.2.11-.6zm-1.39 1.412H40.1v-.153l.673-.9q.17-.23.236-.38.06-.15.06-.3 0-.22-.11-.35-.11-.13-.3-.13-.2 0-.32.16-.12.15-.12.4h-.18q0-.31.17-.51t.44-.2.43.17q.16.17.16.47 0 .28-.26.667l-.11.15-.58.78h1.03zm-2.78-.118q0-.06.03-.098.04-.04.1-.04t.1.04q.04.04.04.098 0 .057-.04.094t-.11.037-.1-.037q-.04-.037-.04-.094zm.01-2.076h-.67v2.194h-.19V61.29h-.68v-.175h1.53zm-1.97 1.612q0-.2-.12-.313-.11-.12-.42-.22t-.46-.24q-.19-.17-.19-.44t.19-.45q.18-.17.48-.17t.49.2.19.51h-.18q0-.24-.133-.39-.13-.15-.364-.15-.227 0-.357.12-.13.12-.13.31 0 .18.124.29.12.11.39.2.267.09.4.18.14.09.2.22.07.12.07.3 0 .27-.19.44-.18.17-.49.17-.21 0-.38-.088t-.27-.246q-.1-.164-.1-.38h.19q0 .25.15.392.15.14.41.14.224 0 .36-.12.136-.12.136-.327zm-1.67-.552h-.92v.962h1.06v.172h-1.24v-2.37h1.23v.176h-1.05v.887h.92zM56.18 28.7q-.08 1.195-.645 1.756-.565.557-1.566.557-1.03 0-1.63-.776-.6-.782-.6-2.12v-1.542q0-1.343.6-2.105.61-.762 1.67-.762.99 0 1.54.572.54.57.62 1.753h-.57q-.08-.967-.46-1.382-.38-.41-1.15-.41-.81 0-1.26.6-.45.6-.45 1.75v1.53q0 1.14.43 1.77.434.63 1.225.63.83 0 1.2-.41.373-.41.447-1.38zm-5.756 2.215h-.554v-7.11h.556zm-3.663-2.96H45.1v2.96h-.56v-7.11h1.95q.97 0 1.503.558.534.55.534 1.538 0 .69-.334 1.22-.332.52-.894.72l1.48 3.03v.07h-.6zm-1.66-.516h1.49q.63 0 1.01-.43.38-.44.38-1.11 0-.75-.39-1.16-.39-.41-1.09-.41h-1.38zm-1.92.07h-2.76v2.88h3.18v.51h-3.73v-7.1h3.71v.53h-3.15v2.66h2.76zm-4.72 3.4h-.56l-3.35-6.06v6.05h-.56v-7.1h.56l3.36 6.06V23.8h.55zm-5.85-3.41h-2.76v2.88h3.18v.51H29.3v-7.1H33v.53h-3.15v2.66h2.76zm-4.63 2.58q-.35.46-.9.69-.54.23-1.19.23-1.09 0-1.71-.74t-.65-2.03V26.5q0-1.36.59-2.083.6-.724 1.7-.724.98 0 1.54.54t.63 1.563h-.55q-.09-.82-.48-1.197-.39-.38-1.114-.38-.87 0-1.302.58-.43.57-.43 1.69v1.64q0 1.11.48 1.72t1.338.62q.934 0 1.524-.59v-1.85h-1.56v-.53H28zm26.73 22.77h-2.76v2.88h3.18v.51H51.4v-7.11h3.705v.53h-3.15v2.66h2.76zm-4.98 0h-2.76v2.88h3.18v.51h-3.73v-7.11h3.71v.53h-3.15v2.66h2.76zm-4.92.09h-2.74v3.31h-.55v-7.11h3.7v.53h-3.15v2.74h2.74zm-4.9 0h-2.73v3.31h-.55v-7.11h3.71v.53h-3.15v2.74h2.74zm-4.78.52q0 1.38-.6 2.13t-1.69.75q-1.08 0-1.69-.75-.61-.75-.61-2.11v-1.55q0-1.37.61-2.13.61-.76 1.69-.76 1.1 0 1.7.76.61.77.61 2.15zm-.56-1.54q0-1.17-.45-1.75-.45-.58-1.29-.58-.81 0-1.27.58-.46.57-.47 1.71v1.59q0 1.17.47 1.76.47.586 1.29.586.85 0 1.29-.585.45-.586.45-1.763zm-5.25 2.11q-.08 1.2-.64 1.76t-1.56.56q-1.03 0-1.62-.77-.59-.78-.6-2.12v-1.55q0-1.34.61-2.1t1.67-.76q1 0 1.548.57t.627 1.75h-.565q-.08-.97-.46-1.38-.373-.42-1.14-.42-.805 0-1.254.6-.45.6-.45 1.74v1.52q0 1.134.43 1.764.44.63 1.23.63.83 0 1.2-.414.376-.414.45-1.38zM61.24 41.1h-2.324v4.143h-.786v-9.955h2.727q1.36 0 2.106.78.75.772.75 2.153 0 .97-.463 1.7-.465.73-1.25 1.01l2.07 4.23v.09h-.834zm-2.324-.725h2.078q.885 0 1.41-.6.528-.61.528-1.552 0-1.045-.547-1.62-.547-.573-1.53-.573H58.92zm-3.294.104h-3.865v4.04H56.2v.72h-5.22v-9.95h5.188v.74h-4.41v3.72h3.863zm-6.44-4.45h-2.83v9.21h-.787v-9.22H42.74v-.74h6.44zm-8.455 6.76q0-.83-.48-1.31-.47-.48-1.77-.92-1.298-.44-1.906-.98-.8-.71-.8-1.86 0-1.14.79-1.86.79-.72 2.03-.72 1.27 0 2.08.83t.81 2.14h-.78q0-1.01-.57-1.62-.56-.63-1.53-.63-.94 0-1.49.51-.54.5-.54 1.31 0 .75.52 1.23t1.63.85q1.12.37 1.7.77.57.393.85.933t.28 1.272q0 1.17-.79 1.885-.79.71-2.09.71-.872 0-1.6-.356-.72-.366-1.13-1.036-.4-.68-.4-1.597h.78q0 1.056.636 1.657.64.6 1.72.6.944 0 1.51-.507.576-.51.576-1.357zm-11.635-1.6v4.04h-.78v-9.96h2.893q1.32 0 2.078.79.76.79.76 2.18 0 1.41-.74 2.17-.73.76-2.11.76zm0-.73h2.113q.984 0 1.517-.57.54-.58.54-1.62 0-1.05-.547-1.65-.54-.6-1.503-.6h-2.12zm-3.464 4.78h-.78v-9.95h.78zm-3.486 0h-.786v-4.76H16.68v4.76h-.78v-9.96h.78v4.46h4.676v-4.46h.786zm19.5-31.09a2.71 3.277 30 0 0-3.987 1.48 2.71 3.277 30 0 0 .218 3.8c.037-.39.12-.85.378-1.27.31-.51 1.03-.97 1.72-1.44.35-.24.7-.47.97-.69.28-.22.49-.43.57-.58.24-.45.21-.94.15-1.3a2.71 3.277 30 0 0-.01-.01zm.44.33c.008.36-.027.77-.23 1.16-.133.25-.374.47-.668.7-.294.23-.643.47-.99.71-.7.47-1.4.97-1.607 1.32-.298.49-.33 1.01-.323 1.38a2.71 3.277 30 0 0 .1.06 2.71 3.277 30 0 0 3.985-1.49 2.71 3.277 30 0 0-.27-3.86z"/>
</svg>
