<?xml version="1.0" standalone="no"?>
<!DOCTYPE svg PUBLIC "-//W3C//DTD SVG 20010904//EN"
 "http://www.w3.org/TR/2001/REC-SVG-20010904/DTD/svg10.dtd">
<svg version="1.0" xmlns="http://www.w3.org/2000/svg"
 width="700.000000pt" height="700.000000pt" viewBox="0 0 700.000000 700.000000"
 preserveAspectRatio="xMidYMid meet">
<metadata>
Created by potrace 1.11, written by Peter Selinger 2001-2013
</metadata>
<g transform="translate(0.000000,700.000000) scale(0.100000,-0.100000)"
fill="#000000" stroke="none">
<path d="M3977 6204 c-1 -1 -56 -4 -122 -7 -270 -14 -508 -58 -770 -145 -60
-20 -112 -37 -115 -37 -6 -2 -13 -5 -120 -48 -123 -50 -367 -178 -497 -260
-466 -296 -858 -693 -1131 -1146 -185 -306 -335 -683 -398 -994 -2 -10 -5 -26
-8 -35 -3 -9 -8 -37 -11 -62 -3 -25 -8 -52 -10 -60 -5 -17 -13 -83 -25 -195
-8 -84 -6 -492 4 -535 3 -14 7 -41 10 -60 48 -390 227 -813 476 -1125 69 -86
201 -227 207 -221 5 4 10 35 18 107 3 31 8 67 10 80 3 13 7 38 10 54 13 94 59
278 98 390 103 296 236 517 433 720 189 195 631 519 1072 786 40 24 103 63
140 86 37 23 74 46 82 50 13 6 188 115 270 168 19 12 114 71 210 130 757 466
1135 777 1243 1025 11 25 27 63 37 85 19 42 38 100 45 131 2 10 10 48 19 84 8
36 18 81 21 100 11 56 14 419 5 485 -5 33 -12 80 -15 105 -10 81 11 65 -200
156 -103 44 -300 107 -369 118 -21 4 -41 8 -45 10 -3 3 -26 7 -51 11 -25 4
-47 8 -50 10 -3 1 -32 6 -65 10 -33 4 -71 9 -85 10 -14 2 -77 7 -140 10 -63 4
-130 8 -148 9 -18 1 -33 2 -35 0z"/>
<path d="M5575 5538 c0 -243 -35 -463 -106 -665 -88 -250 -225 -440 -456 -634
-48 -41 -90 -76 -93 -79 -36 -38 -521 -380 -539 -380 -5 0 -11 -4 -13 -8 -1
-4 -82 -58 -178 -118 -161 -102 -588 -369 -645 -404 -277 -170 -679 -437 -855
-568 -185 -139 -258 -200 -376 -317 -117 -116 -188 -213 -250 -345 -20 -41
-42 -86 -49 -100 -44 -85 -122 -369 -140 -510 -3 -25 -7 -63 -10 -85 -3 -22
-7 -108 -10 -192 l-4 -152 47 -28 c181 -111 508 -223 762 -263 41 -6 86 -13
99 -15 111 -18 408 -24 558 -11 746 62 1458 403 2032 974 81 81 172 176 202
212 30 36 59 70 64 76 6 7 19 24 30 40 11 15 29 39 41 53 84 102 238 356 329
541 72 146 195 469 219 575 1 6 6 26 10 45 4 19 16 71 26 115 20 84 21 88 48
302 17 130 21 391 8 514 -44 420 -161 762 -373 1089 -46 71 -135 189 -178 236
-41 46 -190 194 -194 194 -4 0 -6 -42 -6 -92z"/>
</g>
</svg>
